# xmcd CD database file
#
# Track frame offsets:
#	150
#	13430
#	21245
#	35577
#	45015
#	64567
#	73892
#	87445
#	102957
#	115472
#	127865
#	141040
#	159087
#	172915
#	192580
#	213709
#	231255
#	243060
#	254570
#
# Disc length: 3547 seconds
#
# Revision: 7
# Processed by: cddbd v1.5.2PL0 Copyright (c) Steve Scherf et al.
# Submitted via: CDex 1.70beta2
#
DISCID=080dd913
DTITLE=Tony Bennett - On Holiday
DYEAR=1997
DGENRE=Jazz
TTITLE0=Solitude
TTITLE1=All Of Me
TTITLE2=When A Woman Loves A Man
TTITLE3=Me, Myself And I
TTITLE4=She's Funny That Way
TTITLE5=If I Could Be With You
TTITLE6=Willow Weep For Me
TTITLE7=Laughing At Life
TTITLE8=I Wished On The Moon
TTITLE9=What A Little Moonlight Can Do
TTITLE10=My Old Flame
TTITLE11=That Ole Devil Called Love
TTITLE12=Ill Wind
TTITLE13=These Foolish Things
TTITLE14=Some Other Spring
TTITLE15=Crazy She Calls Me
TTITLE16=Good Morning, Heartache
TTITLE17=Trav'lin Light
TTITLE18=God Bless The Child
EXTD=YEAR: 1997
EXTT0=
EXTT1=
EXTT2=
EXTT3=
EXTT4=
EXTT5=
EXTT6=
EXTT7=
EXTT8=
EXTT9=
EXTT10=
EXTT11=
EXTT12=
EXTT13=
EXTT14=
EXTT15=
EXTT16=
EXTT17=
EXTT18=with Billie Holiday\n
PLAYORDER=
